<?xml version="1.0" encoding="UTF-8"?>
<svg width="145px" height="80px" viewBox="0 0 145 80" version="1.1" xmlns="http://www.w3.org/2000/svg" xmlns:xlink="http://www.w3.org/1999/xlink">
    <g id="iPhone" stroke="none" stroke-width="1" fill="none" fill-rule="evenodd">
        <g id="Welcome-Copy-2" transform="translate(-142.000000, -144.000000)" fill="#181818">
            <g id="Group-2" transform="translate(53.000000, 144.000000)">
                <g id="Logo" transform="translate(89.000000, 0.000000)">
                    <rect id="O-Copy" opacity="0.100000001" x="82.6666667" y="0" width="50" height="80" rx="12"></rect>
                    <rect id="O-Copy-2" opacity="0.100000001" x="94.6666667" y="0" width="50" height="80" rx="12"></rect>
                    <path d="M31.84375,68.0338542 C39.7604167,68.0338542 45.7434896,65.6119792 49.7929688,60.7682292 C53.8424479,55.9244792 55.8671875,48.7630208 55.8671875,39.2838542 C55.8671875,30.2734375 53.8229167,23.4179687 49.734375,18.7174479 C45.6458333,14.0169271 39.6822917,11.6666667 31.84375,11.6666667 L22,11.6666667 C16.4771525,11.6666667 12,16.1438192 12,21.6666667 L12,58.0338542 C12,63.5567017 16.4771525,68.0338542 22,68.0338542 L31.84375,68.0338542 L31.84375,68.0338542 Z M29.65625,56.5104167 L28.3359375,56.5104167 C27.231368,56.5104167 26.3359375,55.6149862 26.3359375,54.5104167 L26.3359375,25.1901042 C26.3359375,24.0855347 27.231368,23.1901042 28.3359375,23.1901042 L29.65625,23.1901042 L29.65625,23.1901042 C33.5885417,23.1901042 36.5052083,24.5377604 38.40625,27.2330729 C40.3072917,29.9283854 41.2578125,34.0364583 41.2578125,39.5572917 C41.2578125,45.4427083 40.3333333,49.7395833 38.484375,52.4479167 C36.6354167,55.15625 33.6927083,56.5104167 29.65625,56.5104167 Z" id="D-Copy" fill-rule="nonzero" opacity="0.100000001"></path>
                    <path d="M19.84375,68.0338542 C27.7604167,68.0338542 33.7434896,65.6119792 37.7929688,60.7682292 C41.8424479,55.9244792 43.8671875,48.7630208 43.8671875,39.2838542 C43.8671875,30.2734375 41.8229167,23.4179687 37.734375,18.7174479 C33.6458333,14.0169271 27.6822917,11.6666667 19.84375,11.6666667 L10,11.6666667 C4.4771525,11.6666667 -6.76353751e-16,16.1438192 0,21.6666667 L0,58.0338542 C-4.22892021e-15,63.5567017 4.4771525,68.0338542 10,68.0338542 L19.84375,68.0338542 L19.84375,68.0338542 Z M17.65625,56.5104167 L16.3359375,56.5104167 C15.231368,56.5104167 14.3359375,55.6149862 14.3359375,54.5104167 L14.3359375,25.1901042 C14.3359375,24.0855347 15.231368,23.1901042 16.3359375,23.1901042 L17.65625,23.1901042 L17.65625,23.1901042 C21.5885417,23.1901042 24.5052083,24.5377604 26.40625,27.2330729 C28.3072917,29.9283854 29.2578125,34.0364583 29.2578125,39.5572917 C29.2578125,45.4427083 28.3333333,49.7395833 26.484375,52.4479167 C24.6354167,55.15625 21.6927083,56.5104167 17.65625,56.5104167 Z" id="D-Copy-2" fill-rule="nonzero" opacity="0.100000001"></path>
                    <rect id="O" x="70.6666667" y="0" width="50" height="80" rx="12"></rect>
                    <path d="M43.84375,68.0338542 C51.7604167,68.0338542 57.7434896,65.6119792 61.7929688,60.7682292 C65.8424479,55.9244792 67.8671875,48.7630208 67.8671875,39.2838542 C67.8671875,30.2734375 65.8229167,23.4179687 61.734375,18.7174479 C57.6458333,14.0169271 51.6822917,11.6666667 43.84375,11.6666667 L34,11.6666667 C28.4771525,11.6666667 24,16.1438192 24,21.6666667 L24,58.0338542 C24,63.5567017 28.4771525,68.0338542 34,68.0338542 L43.84375,68.0338542 L43.84375,68.0338542 Z M41.65625,56.5104167 L40.3359375,56.5104167 C39.231368,56.5104167 38.3359375,55.6149862 38.3359375,54.5104167 L38.3359375,25.1901042 C38.3359375,24.0855347 39.231368,23.1901042 40.3359375,23.1901042 L41.65625,23.1901042 L41.65625,23.1901042 C45.5885417,23.1901042 48.5052083,24.5377604 50.40625,27.2330729 C52.3072917,29.9283854 53.2578125,34.0364583 53.2578125,39.5572917 C53.2578125,45.4427083 52.3333333,49.7395833 50.484375,52.4479167 C48.6354167,55.15625 45.6927083,56.5104167 41.65625,56.5104167 Z" id="D" fill-rule="nonzero"></path>
                </g>
            </g>
        </g>
    </g>
</svg>
