<?xml version="1.0" encoding="UTF-8"?>
<svg width="24px" height="24px" viewBox="0 0 24 24" version="1.1" xmlns="http://www.w3.org/2000/svg" xmlns:xlink="http://www.w3.org/1999/xlink">
    <g stroke="none" stroke-width="1" fill="none" fill-rule="evenodd">
        <path d="M11.9784365,9.62376229 L11.9784365,14.3762378 C11.9784365,14.3762378 16.5805286,14.3700595 18.4543829,14.3700595 C17.4396549,17.4509704 15.8618224,19.1287132 11.9784365,19.1287132 C8.04844227,19.1287132 4.981132,15.9370692 4.981132,12 C4.981132,8.06293085 8.04844227,4.87128686 11.9784365,4.87128686 C14.0562806,4.87128686 15.3982212,5.60293087 16.6291538,6.62269315 C17.6144691,5.635604 17.5321617,5.49493087 20.038976,3.12332686 C17.9109651,1.18289086 15.0826309,0 11.9784365,0 C5.3629,0 -1.95399252e-14,5.37255429 -1.95399252e-14,12 C-1.95399252e-14,18.6273269 5.3629,24 11.9784365,24 C21.8668143,24 24.2837303,15.3742571 23.4824801,9.62376229 L11.9784365,9.62376229 Z" id="Path" fill="currentColor"></path>
    </g>
</svg>
