<?xml version="1.0" encoding="UTF-8"?>
<svg width="24px" height="24px" viewBox="0 0 24 24" version="1.1" xmlns="http://www.w3.org/2000/svg" xmlns:xlink="http://www.w3.org/1999/xlink">
    <g stroke="none" stroke-width="1" fill="none" fill-rule="evenodd">
        <path d="M23.3755102,3.02808827 C23.3755102,3.02808827 22.6702041,3.35135358 22.1804082,3.53257807 C21.6930612,3.71380256 21.0367347,3.89502705 21.0367347,3.89502705 C21.0367347,3.89502705 18.4530612,0.711353576 14.6963265,2.59706786 C10.9395918,4.48278215 12.1542857,8.73910868 12.1542857,8.73910868 C12.1542857,8.73910868 8.94857143,8.84931276 5.15510204,6.92686378 C1.36163265,5.00196582 0.440816327,3.26319031 0.440816327,3.26319031 C0.440816327,3.26319031 -0.146938776,4.29910868 0.110204082,6.22400664 C0.367346939,8.1489046 2.17959184,10.622374 2.17959184,10.622374 L0,9.73829235 C0,9.73829235 0.110204082,10.9603332 0.95755102,12.2166597 C1.80489796,13.4754352 4.7877551,15.064823 4.7877551,15.064823 L1.95183673,15.1015577 C1.95183673,15.1015577 2.20897959,15.6942107 3.24,16.6933944 C4.27102041,17.6925781 7.14367347,18.5791087 7.14367347,18.5791087 C7.14367347,18.5791087 5.12326531,19.9995168 3.71755102,20.5407413 C2.31183673,21.0795168 0.107755102,21.2068638 0.107755102,21.2068638 C0.107755102,21.2068638 3.38938776,23.2591087 8.43183673,22.7619658 C13.4718367,22.264823 16.9420408,19.8966597 19.6285714,15.9538026 C22.315102,12.0109454 22.0604082,6.89012909 22.0604082,6.89012909 C22.0604082,6.89012909 22.3542857,6.54972092 23.0669388,5.89339439 C23.7795918,5.23706786 24,4.91380256 24,4.91380256 L22.2171429,5.10482296 L23.3755102,3.02808827 Z" id="Path" fill="currentColor" fill-rule="nonzero"></path>
    </g>
</svg>
