<?xml version="1.0" encoding="UTF-8"?>
<svg width="8px" height="14px" viewBox="0 0 8 14" version="1.1" xmlns="http://www.w3.org/2000/svg" xmlns:xlink="http://www.w3.org/1999/xlink">
    <g stroke="none" stroke-width="1" fill="none" fill-rule="evenodd">
        <g transform="translate(-1286.000000, -33.000000)" fill="currentColor" fill-rule="nonzero">
            <g transform="translate(1286.050781, 33.476562)">
                <path d="M0.62109375,12.5683594 C0.908203125,12.5683594 1.078125,12.4042969 1.60546875,11.8945312 L3.89648438,9.63867188 C3.92578125,9.609375 3.97851563,9.609375 4.00195312,9.63867188 L6.29296875,11.8945312 C6.8203125,12.4042969 6.99023438,12.5683594 7.27734375,12.5683594 C7.66992188,12.5683594 7.8984375,12.3105469 7.8984375,11.8535156 L7.8984375,1.68164062 C7.8984375,0.568359375 7.34179688,0 6.24023438,0 L1.65820312,0 C0.556640625,0 0,0.568359375 0,1.68164062 L0,11.8535156 C0,12.3105469 0.228515625,12.5683594 0.62109375,12.5683594 Z M1.1015625,10.9863281 C1.01953125,11.0683594 0.92578125,11.0449219 0.92578125,10.9277344 L0.92578125,1.69335938 C0.92578125,1.18945312 1.18945312,0.92578125 1.70507812,0.92578125 L6.19921875,0.92578125 C6.70898438,0.92578125 6.97265625,1.18945312 6.97265625,1.69335938 L6.97265625,10.9277344 C6.97265625,11.0449219 6.88476562,11.0683594 6.796875,10.9863281 L4.25976562,8.52539062 C4.07226562,8.34375 3.82617188,8.34375 3.63867188,8.52539062 L1.1015625,10.9863281 Z" id="Shape"></path>
            </g>
        </g>
    </g>
</svg>
