<?xml version="1.0" encoding="UTF-8"?>
<svg width="12px" height="20px" viewBox="0 0 12 20" version="1.1" xmlns="http://www.w3.org/2000/svg" xmlns:xlink="http://www.w3.org/1999/xlink">
    <title>􀉞</title>
    <g id="Icons" stroke="none" stroke-width="1" fill="none" fill-rule="evenodd">
        <g id="Artboard" transform="translate(-6.000000, -2.000000)" fill="currentColor" fill-rule="nonzero">
            <g id="􀉞" transform="translate(6.000000, 2.000000)">
                <path d="M0.943620178,20 C1.37982196,20 1.6379822,19.7389277 2.43916914,18.9277389 L5.91988131,15.3379953 C5.96439169,15.2913753 6.04451039,15.2913753 6.08011869,15.3379953 L9.56083086,18.9277389 C10.3620178,19.7389277 10.620178,20 11.0563798,20 C11.652819,20 12,19.5897436 12,18.8624709 L12,2.67599068 C12,0.904428904 11.1543027,0 9.48071217,0 L2.51928783,0 C0.845697329,0 0,0.904428904 0,2.67599068 L0,18.8624709 C0,19.5897436 0.347181009,20 0.943620178,20 Z M1.6735905,17.4825175 C1.54896142,17.6130536 1.40652819,17.5757576 1.40652819,17.3892774 L1.40652819,2.69463869 C1.40652819,1.89277389 1.80712166,1.47319347 2.59050445,1.47319347 L9.41839763,1.47319347 C10.1928783,1.47319347 10.5934718,1.89277389 10.5934718,2.69463869 L10.5934718,17.3892774 C10.5934718,17.5757576 10.4599407,17.6130536 10.3264095,17.4825175 L6.47181009,13.5664336 C6.18694362,13.2773893 5.81305638,13.2773893 5.52818991,13.5664336 L1.6735905,17.4825175 Z" id="Shape"></path>
            </g>
        </g>
    </g>
</svg>
