<?xml version="1.0" encoding="UTF-8"?>
<svg width="24px" height="24px" viewBox="0 0 24 24" version="1.1" xmlns="http://www.w3.org/2000/svg"
		 xmlns:xlink="http://www.w3.org/1999/xlink">
	<g id="checkmark" stroke="none" stroke-width="1" fill="none" fill-rule="evenodd">
		<g id="􀆅" transform="translate(4.000000, 4.000000)" fill="currentColor" fill-rule="nonzero">
			<path
				d="M6.05455601,15.8699942 C6.45385955,15.8699942 6.76958793,15.6935577 6.99245502,15.349971 L15.7678468,1.53221126 C15.9349971,1.26291352 16,1.05861869 16,0.845037725 C16,0.334300638 15.6656994,0 15.1549623,0 C14.7835171,0 14.5792223,0.120719675 14.3563552,0.473592571 L6.01741149,13.7620429 L1.69007545,8.09750435 C1.45792223,7.77248984 1.22576901,7.64248404 0.891468369,7.64248404 C0.362159025,7.64248404 0,8.00464306 0,8.51538015 C0,8.72896111 0.0928612885,8.97040046 0.269297737,9.19326756 L5.08879861,15.3313987 C5.36738247,15.6935577 5.65525247,15.8699942 6.05455601,15.8699942 Z"
				id="Path"></path>
		</g>
	</g>
</svg>
