<?xml version="1.0" encoding="UTF-8"?>
<svg width="12px" height="13px" viewBox="0 0 12 13" version="1.1" xmlns="http://www.w3.org/2000/svg" xmlns:xlink="http://www.w3.org/1999/xlink">
    <g stroke="none" stroke-width="1" fill="none" fill-rule="evenodd">
        <g transform="translate(-1257.000000, -33.000000)" fill="currentColor" fill-rule="nonzero">
            <g transform="translate(1257.023438, 33.792969)">
                <path d="M5.9765625,11.953125 C9.24609375,11.953125 11.953125,9.24023438 11.953125,5.9765625 C11.953125,2.70703125 9.24023438,0 5.97070312,0 C2.70703125,0 0,2.70703125 0,5.9765625 C0,9.24023438 2.71289062,11.953125 5.9765625,11.953125 Z M5.9765625,10.9570312 C3.2109375,10.9570312 1.00195312,8.7421875 1.00195312,5.9765625 C1.00195312,3.2109375 3.20507812,0.99609375 5.97070312,0.99609375 C8.73632812,0.99609375 10.9511719,3.2109375 10.9570428,5.9765625 C10.9628906,8.7421875 8.7421875,10.9570312 5.9765625,10.9570312 Z M2.91210938,6.609375 L5.97070312,6.609375 C6.19921875,6.609375 6.38085938,6.43359375 6.38085938,6.19921875 L6.38085938,2.25 C6.38085938,2.02148438 6.19921875,1.84570312 5.97070312,1.84570312 C5.7421875,1.84570312 5.56640625,2.02148438 5.56640625,2.25 L5.56640625,5.79492188 L2.91210938,5.79492188 C2.67773438,5.79492188 2.50195312,5.97070312 2.50195312,6.19921875 C2.50195312,6.43359375 2.67773438,6.609375 2.91210938,6.609375 Z" id="Shape"></path>
            </g>
        </g>
    </g>
</svg>
