<?xml version="1.0" encoding="UTF-8"?>
<svg width="32" viewBox="0 0 98 80" version="1.1" xmlns="http://www.w3.org/2000/svg" xmlns:xlink="http://www.w3.org/1999/xlink">
    <g stroke="none" stroke-width="1" fill="none" fill-rule="evenodd">
        <g id="Main-Logo" transform="translate(-41.000000, -50.000000)" fill="currentColor">
            <g id="Logo" transform="translate(41.666667, 50.000000)">
                <rect id="O" x="46.6666667" y="0" width="50" height="80" rx="12"></rect>
                <path d="M19.84375,68.0338542 C27.7604167,68.0338542 33.7434896,65.6119792 37.7929688,60.7682292 C41.8424479,55.9244792 43.8671875,48.7630208 43.8671875,39.2838542 C43.8671875,30.2734375 41.8229167,23.4179687 37.734375,18.7174479 C33.6458333,14.0169271 27.6822917,11.6666667 19.84375,11.6666667 L10,11.6666667 C4.4771525,11.6666667 -6.76353751e-16,16.1438192 0,21.6666667 L0,58.0338542 C-4.22892021e-15,63.5567017 4.4771525,68.0338542 10,68.0338542 L19.84375,68.0338542 L19.84375,68.0338542 Z M17.65625,56.5104167 L16.3359375,56.5104167 C15.231368,56.5104167 14.3359375,55.6149862 14.3359375,54.5104167 L14.3359375,25.1901042 C14.3359375,24.0855347 15.231368,23.1901042 16.3359375,23.1901042 L17.65625,23.1901042 L17.65625,23.1901042 C21.5885417,23.1901042 24.5052083,24.5377604 26.40625,27.2330729 C28.3072917,29.9283854 29.2578125,34.0364583 29.2578125,39.5572917 C29.2578125,45.4427083 28.3333333,49.7395833 26.484375,52.4479167 C24.6354167,55.15625 21.6927083,56.5104167 17.65625,56.5104167 Z" id="D" fill-rule="nonzero"></path>
            </g>
        </g>
    </g>
</svg>
