<?xml version="1.0" encoding="UTF-8"?>
<svg width="4px" height="20px" viewBox="0 0 4 20" version="1.1" xmlns="http://www.w3.org/2000/svg" xmlns:xlink="http://www.w3.org/1999/xlink">
    <title>􀍠</title>
    <g id="Icons" stroke="none" stroke-width="1" fill="none" fill-rule="evenodd">
        <g id="􀍠" transform="translate(2.000000, 9.958984) rotate(90.000000) translate(-2.000000, -9.958984) translate(-7.208984, 8.005859)" fill="currentColor" fill-rule="nonzero">
            <path d="M3.93554688,1.953125 C3.93554688,0.869140625 3.05664062,0 1.953125,0 C0.87890625,0 0,0.869140625 0,1.953125 C0,3.03710938 0.87890625,3.90625 1.953125,3.90625 C3.05664062,3.90625 3.93554688,3.03710938 3.93554688,1.953125 Z M11.1621094,1.953125 C11.1621094,0.869140625 10.2929688,0 9.20898438,0 C8.13476562,0 7.265625,0.869140625 7.265625,1.953125 C7.265625,3.03710938 8.13476562,3.90625 9.20898438,3.90625 C10.2929688,3.90625 11.1621094,3.03710938 11.1621094,1.953125 Z M18.4179688,1.953125 C18.4179688,0.869140625 17.5488281,0 16.4648438,0 C15.3613281,0 14.4921875,0.869140625 14.4921875,1.953125 C14.4921875,3.03710938 15.3613281,3.90625 16.4648438,3.90625 C17.5488281,3.90625 18.4179688,3.03710938 18.4179688,1.953125 Z" id="Shape"></path>
        </g>
    </g>
</svg>
