<?xml version="1.0" encoding="UTF-8"?>
<svg width="24px" height="24px" viewBox="0 0 24 24" version="1.1" xmlns="http://www.w3.org/2000/svg"
		 xmlns:xlink="http://www.w3.org/1999/xlink">
	<g id="plus" stroke="none" stroke-width="1" fill="none" fill-rule="evenodd">
		<g id="􀅼" transform="translate(4.000000, 4.000000)" fill="currentColor" fill-rule="nonzero">
			<path
				d="M0,8 C0,8.47515152 0.397575758,8.8630303 0.863030303,8.8630303 L7.1369697,8.8630303 L7.1369697,15.1369697 C7.1369697,15.6024242 7.52484848,16 8,16 C8.47515152,16 8.87272727,15.6024242 8.87272727,15.1369697 L8.87272727,8.8630303 L15.1369697,8.8630303 C15.6024242,8.8630303 16,8.47515152 16,8 C16,7.52484848 15.6024242,7.12727273 15.1369697,7.12727273 L8.87272727,7.12727273 L8.87272727,0.863030303 C8.87272727,0.397575758 8.47515152,0 8,0 C7.52484848,0 7.1369697,0.397575758 7.1369697,0.863030303 L7.1369697,7.12727273 L0.863030303,7.12727273 C0.397575758,7.12727273 0,7.52484848 0,8 Z"
				id="Path"></path>
		</g>
	</g>
</svg>
