<?xml version="1.0" encoding="UTF-8"?>
<svg width="12px" height="13px" viewBox="0 0 12 13" version="1.1" xmlns="http://www.w3.org/2000/svg" xmlns:xlink="http://www.w3.org/1999/xlink">
    <g stroke="none" stroke-width="1" fill="none" fill-rule="evenodd">
        <g transform="translate(-1311.000000, -33.000000)" fill="currentColor" fill-rule="nonzero">
            <g transform="translate(1311.275391, 33.992188)">
                <path d="M0,4.67578125 C0,7.25390625 2.09765625,9.3515625 4.67578125,9.3515625 C5.6953125,9.3515625 6.62695312,9.0234375 7.39453125,8.47265625 L10.2773438,11.3613281 C10.4121094,11.4960938 10.5878906,11.5605469 10.7753906,11.5605469 C11.1738281,11.5605469 11.4492188,11.2617188 11.4492188,10.8691406 C11.4492188,10.6816406 11.3789062,10.5117188 11.2558594,10.3886719 L8.390625,7.50585938 C8.99414062,6.72070312 9.3515625,5.7421875 9.3515625,4.67578125 C9.3515625,2.09765625 7.25390625,0 4.67578125,0 C2.09765625,0 0,2.09765625 0,4.67578125 Z M1.00195312,4.67578125 C1.00195312,2.6484375 2.6484375,1.00195312 4.67578125,1.00195312 C6.703125,1.00195312 8.34960938,2.6484375 8.34960938,4.67578125 C8.34960938,6.703125 6.703125,8.34960938 4.67578125,8.34960938 C2.6484375,8.34960938 1.00195312,6.703125 1.00195312,4.67578125 Z" id="Shape"></path>
            </g>
        </g>
    </g>
</svg>
