<?xml version="1.0" encoding="UTF-8"?>
<svg width="24px" height="24px" viewBox="0 0 24 24" version="1.1" xmlns="http://www.w3.org/2000/svg" xmlns:xlink="http://www.w3.org/1999/xlink">
    <title>Sign In</title>
    <g id="signIn" stroke="none" stroke-width="1" fill="none" fill-rule="evenodd">
        <g id="􀟒" transform="translate(2.000000, 2.000000)" fill="currentColor" fill-rule="nonzero">
            <path d="M0.775077709,7.65859036 C1.1473703,7.791552 1.51079877,7.61426981 1.65262452,7.23311312 C3.06201789,3.41268205 6.37719473,1.25870351 10.0380718,1.25870351 C11.5981551,1.25870351 12.7859457,1.56894733 13.8585029,2.1185221 C14.275116,2.32239661 14.6651368,2.32239661 14.842419,1.95010403 C14.9931089,1.61326788 14.8512831,1.32961638 14.514447,1.12574187 C13.1227818,0.283651495 11.7488449,0 10.0380718,0 C5.71238654,0 2.08696587,2.34012483 0.438241559,6.6392178 C0.252095266,7.1178797 0.42937745,7.53449283 0.775077709,7.65859036 Z M2.14015053,15.7958426 C2.35288915,16.0883582 2.77836639,16.150407 3.0797461,15.8933478 C3.74455429,15.3349089 4.09911866,14.4130416 4.09911866,13.4113972 C4.09911866,12.1438296 3.558408,11.4967496 3.558408,9.98985108 C3.558408,6.4530715 6.47469993,3.53677957 10.0114795,3.53677957 C14.2130673,3.53677957 16.9609411,7.00264628 16.9698052,12.1615578 C16.9698052,14.2357594 16.624105,15.6451528 16.3138612,16.398602 C16.1720354,16.7354382 16.2961329,17.1077308 16.5975126,17.2584206 C16.9166206,17.4091105 17.3420978,17.2672847 17.4750595,16.9127204 C17.8118956,15.9997171 18.2285087,14.4130416 18.2285087,12.1526937 C18.2285087,6.2580611 14.9665166,2.27807607 10.0114795,2.27807607 C5.78329941,2.27807607 2.29970449,5.7705351 2.29970449,9.98985108 C2.29970449,11.4790214 2.86700748,12.4895299 2.87587159,13.4025331 C2.87587159,14.0141567 2.64540475,14.5548673 2.26424806,14.9182958 C1.99832478,15.1664909 1.94514013,15.5299193 2.14015053,15.7958426 Z M19.7442714,11.0978647 C20.1076999,11.0978647 20.355895,10.796485 20.3204385,10.4153283 C19.9658741,6.67467424 18.733763,4.4231905 16.6329691,2.49081469 C16.3404535,2.2160273 15.9415686,2.27807607 15.7288299,2.52627112 C15.4983631,2.77446618 15.5249554,3.14675877 15.8263351,3.43041026 C17.6612058,5.21209622 18.8224041,7.32175421 19.1149197,10.4507848 C19.1503761,10.8230773 19.3897071,11.0978647 19.7442714,11.0978647 Z M6.38605884,12.2945195 C6.16445611,11.69176 5.85421229,10.9737672 5.85421229,10.0164434 C5.85421229,7.68518269 7.70681111,5.82371975 10.0380718,5.82371975 C10.9156186,5.82371975 11.190406,5.91236084 11.9349912,6.24919699 C12.2718274,6.40875096 12.5820712,6.31124576 12.7150328,6.04532248 C12.8834509,5.73507866 12.7948098,5.35392196 12.4313813,5.14118334 C11.8108937,4.77775486 10.9776674,4.56501624 10.0380718,4.56501624 C7.01541059,4.56501624 4.57778056,7.00264628 4.57778056,10.0164434 C4.57778056,11.0890006 4.87029616,12.0551885 5.15394766,12.7731814 C5.30463752,13.1543381 5.66806599,13.3050279 6.04922269,13.1543381 C6.37719473,13.0213764 6.51015637,12.6668121 6.38605884,12.2945195 Z M13.4773462,7.56994927 C14.2839801,8.82865277 14.7094574,10.4951053 14.7094574,12.6224915 C14.7094574,14.9005676 14.0889697,17.0634102 13.1139177,18.2689291 C12.9011791,18.5437165 12.892315,18.9248732 13.1316459,19.15534 C13.4152974,19.4035351 13.8585029,19.3769427 14.0801056,19.0844271 C15.2235757,17.5420721 15.9504327,15.1044421 15.9504327,12.5958992 C15.9504327,9.71506369 15.3388091,8.21702924 14.5676316,6.90514107 C14.3637571,6.55057671 13.9648722,6.43534329 13.6546284,6.60376136 C13.3089281,6.78104355 13.2468794,7.20652079 13.4773462,7.56994927 Z M6.35946651,18.7121345 C7.87522919,17.4977516 8.72618367,15.5387834 8.71731956,13.3848049 C8.70845545,11.7449447 8.13228835,10.7610286 8.13228835,9.9100741 C8.13228835,8.81978866 8.89460175,8.11065993 10.0292077,8.11065993 C11.6513397,8.11065993 12.3072838,9.89234588 12.3781967,12.5427145 C12.4668378,15.255132 11.509514,17.692762 10.1267129,18.8805526 C9.86965376,19.1021553 9.80760499,19.4567197 9.98488718,19.7315071 C10.1976258,20.0417509 10.6408313,20.0949356 10.9244828,19.8290123 C12.4225172,18.4728036 13.5748514,15.5121911 13.5660381,12.4540734 C13.5482591,9.07684783 12.5022942,6.85195642 10.0292077,6.85195642 C8.22979356,6.85195642 6.89131306,8.05747527 6.89131306,9.80370479 C6.89131306,10.8673979 7.44088784,12.1349655 7.44975194,13.3848049 C7.45861605,15.1664909 6.79380786,16.7443023 5.58828901,17.7282184 C5.29577341,17.9675494 5.24258875,18.3221137 5.42873504,18.6146293 C5.65920188,18.9337373 6.07581502,18.9691937 6.35946651,18.7121345 Z M1.20941906,13.1897945 C1.52852699,13.0922893 1.68808096,12.7554532 1.60830398,12.3831606 C1.37783714,11.4612932 1.25373961,10.6192028 1.28033193,9.37822754 C1.28919604,9.01479907 1.06759331,8.76660401 0.739621272,8.72228346 C0.340736358,8.67796292 0.0482207541,8.92615797 0.0216284265,9.32504289 C-0.0492844472,10.3710078 0.0482207541,11.4790214 0.402785123,12.7377249 C0.509154433,13.1100175 0.863718801,13.3050279 1.20941906,13.1897945 Z M11.021988,14.3332646 C11.2524548,13.0479688 11.1638137,11.5322061 10.7206082,10.1405409 C10.5965107,9.74165602 10.2685387,9.56437384 9.9139743,9.67074315 C9.58600226,9.77711246 9.39985597,10.0962204 9.50622528,10.4596489 C9.9051102,11.7892652 9.97602307,12.9947841 9.78101267,14.1471183 C9.72782801,14.4928186 9.88738198,14.8119265 10.2596746,14.8739753 C10.623103,14.936024 10.9510751,14.7144213 11.021988,14.3332646 Z M4.43595481,17.5154798 C5.16281177,17.1520513 6.04035858,15.9819889 6.30628186,15.0778498 C6.41265117,14.7498777 6.24423309,14.3775851 5.91626105,14.2712158 C5.59715312,14.1559824 5.26031697,14.3509928 5.13621944,14.7055572 C4.89688849,15.42355 4.49800358,15.9731248 3.86865182,16.4074661 C3.51408746,16.6556612 3.42544636,16.9836332 3.54954389,17.2761489 C3.68250553,17.5863927 4.05479812,17.7104902 4.43595481,17.5154798 Z M8.52230916,19.4478556 C9.24030201,18.9160091 10.0203436,17.8434518 10.4103644,16.7354382 C10.5344619,16.4074661 10.4192285,16.0174453 10.0823924,15.9022119 C9.70123568,15.7692503 9.39099186,15.9642607 9.24916611,16.3010968 C8.85914531,17.2761489 8.36275519,17.9320929 7.75113166,18.4373472 C7.47634427,18.6589499 7.4054314,19.0312425 7.59157769,19.314894 C7.77772399,19.6162737 8.20320123,19.6694583 8.52230916,19.4478556 Z" id="Shape"></path>
        </g>
    </g>
</svg>
