<?xml version="1.0" encoding="UTF-8"?>
<svg version="1.1" xmlns="http://www.w3.org/2000/svg" xmlns:xlink="http://www.w3.org/1999/xlink" width="17.8711" height="18.1348">
	<g>
		<rect height="18.1348" opacity="0" width="17.8711" x="0" y="0"/>
		<path d="M0 11.3379C0 12.627 1.05469 13.6816 2.34375 13.6816C3.63281 13.6816 4.69727 12.627 4.69727 11.3379C4.69727 10.0488 3.63281 8.99414 2.34375 8.99414C1.05469 8.99414 0 10.0488 0 11.3379ZM1.20117 11.3379C1.20117 10.6934 1.70898 10.1953 2.35352 10.1953C2.99805 10.1953 3.49609 10.6934 3.49609 11.3379C3.49609 11.9824 2.99805 12.4805 2.35352 12.4805C1.70898 12.4805 1.20117 11.9824 1.20117 11.3379ZM2.35352 0C1.91406 0 1.5625 0.351562 1.5625 0.791016L1.5625 9.78516L3.13477 9.78516L3.13477 0.791016C3.13477 0.351562 2.79297 0 2.35352 0ZM2.35352 17.1875C2.79297 17.1875 3.13477 16.8359 3.13477 16.4355L3.13477 13.0371L1.5625 13.0371L1.5625 16.4355C1.5625 16.8359 1.91406 17.1875 2.35352 17.1875ZM6.58203 5.69336C6.58203 6.98242 7.64648 8.03711 8.93555 8.03711C10.2246 8.03711 11.2793 6.98242 11.2793 5.69336C11.2793 4.4043 10.2246 3.34961 8.93555 3.34961C7.64648 3.34961 6.58203 4.4043 6.58203 5.69336ZM7.79297 5.69336C7.79297 5.05859 8.30078 4.55078 8.93555 4.55078C9.58008 4.55078 10.0781 5.05859 10.0781 5.69336C10.0781 6.33789 9.58008 6.83594 8.93555 6.83594C8.30078 6.83594 7.79297 6.33789 7.79297 5.69336ZM8.93555 0C8.49609 0 8.1543 0.351562 8.1543 0.751953L8.1543 4.01367L9.72656 4.01367L9.72656 0.751953C9.72656 0.351562 9.375 0 8.93555 0ZM8.93555 17.1875C9.375 17.1875 9.72656 16.8359 9.72656 16.3965L9.72656 7.24609L8.1543 7.24609L8.1543 16.3965C8.1543 16.8359 8.49609 17.1875 8.93555 17.1875ZM13.1836 11.3379C13.1836 12.627 14.2383 13.6816 15.5273 13.6816C16.8164 13.6816 17.8711 12.627 17.8711 11.3379C17.8711 10.0488 16.8164 8.99414 15.5273 8.99414C14.2383 8.99414 13.1836 10.0488 13.1836 11.3379ZM14.3848 11.3379C14.3848 10.6934 14.8926 10.1953 15.5273 10.1953C16.1816 10.1953 16.6699 10.6934 16.6699 11.3379C16.6699 11.9824 16.1816 12.4805 15.5273 12.4805C14.8926 12.4805 14.3848 11.9824 14.3848 11.3379ZM15.5273 0C15.0879 0 14.7363 0.351562 14.7363 0.791016L14.7363 9.83398L16.3086 9.83398L16.3086 0.791016C16.3086 0.351562 15.9668 0 15.5273 0ZM15.5273 17.1875C15.9668 17.1875 16.3086 16.8359 16.3086 16.4355L16.3086 12.9004L14.7363 12.9004L14.7363 16.4355C14.7363 16.8359 15.0879 17.1875 15.5273 17.1875Z" fill="currentColor" fill-opacity="0.85"/>
	</g>
</svg>
